<svg width="18" height="18" viewBox="0 0 18 18" fill="none" xmlns="http://www.w3.org/2000/svg">
<rect width="18" height="18" rx="4" fill="#F04E4F"/>
<path d="M5.66667 13H7.66667V10.3333H8.33333V8.66667C8.33333 8.3 8.20289 7.986 7.942 7.72467C7.68067 7.46378 7.36667 7.33333 7 7.33333H6.33333C5.96667 7.33333 5.65289 7.46378 5.392 7.72467C5.13067 7.986 5 8.3 5 8.66667V10.3333H5.66667V13ZM6.66667 6.66667C6.9 6.66667 7.09711 6.586 7.258 6.42467C7.41933 6.26378 7.5 6.06667 7.5 5.83333C7.5 5.6 7.41933 5.40267 7.258 5.24133C7.09711 5.08044 6.9 5 6.66667 5C6.43333 5 6.23622 5.08044 6.07533 5.24133C5.914 5.40267 5.83333 5.6 5.83333 5.83333C5.83333 6.06667 5.914 6.26378 6.07533 6.42467C6.23622 6.586 6.43333 6.66667 6.66667 6.66667ZM9.66667 8.33333H13L11.3333 5.66667L9.66667 8.33333ZM11.3333 12.3333L13 9.66667H9.66667L11.3333 12.3333ZM4.33333 15C3.96667 15 3.65267 14.8696 3.39133 14.6087C3.13044 14.3473 3 14.0333 3 13.6667V4.33333C3 3.96667 3.13044 3.65267 3.39133 3.39133C3.65267 3.13044 3.96667 3 4.33333 3H13.6667C14.0333 3 14.3473 3.13044 14.6087 3.39133C14.8696 3.65267 15 3.96667 15 4.33333V13.6667C15 14.0333 14.8696 14.3473 14.6087 14.6087C14.3473 14.8696 14.0333 15 13.6667 15H4.33333Z" fill="white"/>
</svg>
